<svg width="28" height="28" viewBox="0 0 28 28" fill="none" xmlns="http://www.w3.org/2000/svg">
<g clip-path="url(#clip0_35_96)">
<path d="M14 0C6.27 0 0 6.27 0 14C0 21.73 6.27 28 14 28C21.73 28 28 21.73 28 14C28 6.27 21.73 0 14 0ZM16.83 16.83C15.06 18.6 6.22 21.78 6.22 21.78C6.22 21.78 9.4 12.94 11.17 11.18C12.94 9.41 21.77 6.23 21.77 6.23C21.77 6.23 18.59 15.07 16.82 16.84L16.83 16.83Z" fill="#F6C11B"/>
<path d="M14 16C15.1046 16 16 15.1046 16 14C16 12.8954 15.1046 12 14 12C12.8954 12 12 12.8954 12 14C12 15.1046 12.8954 16 14 16Z" fill="#F6C11B"/>
</g>
<defs>
<clipPath id="clip0_35_96">
<rect width="28" height="28" fill="white"/>
</clipPath>
</defs>
</svg>
