<svg width="21" height="20" viewBox="0 0 21 20" fill="none" xmlns="http://www.w3.org/2000/svg">
<path d="M10.81 -0.0100098C8.09333 -0.0100098 7.75416 0.00249023 6.6875 0.0499902C5.6225 0.0999902 4.8975 0.26749 4.26 0.51499C3.6025 0.76999 3.04416 1.11249 2.48833 1.66832C1.9325 2.22416 1.58916 2.78166 1.335 3.43999C1.0875 4.07749 0.919164 4.80249 0.869998 5.86749C0.819998 6.93416 0.809998 7.27332 0.809998 9.98999C0.809998 12.7067 0.822498 13.0458 0.869998 14.1125C0.919998 15.1767 1.0875 15.9025 1.335 16.54C1.58607 17.2074 1.97966 17.812 2.48833 18.3117C2.98773 18.8207 3.59241 19.2143 4.26 19.465C4.89833 19.7117 5.62333 19.8808 6.6875 19.93C7.75416 19.98 8.09333 19.99 10.81 19.99C13.5267 19.99 13.8658 19.9775 14.9325 19.93C15.9967 19.88 16.7225 19.7117 17.36 19.465C18.0272 19.2136 18.6318 18.8201 19.1317 18.3117C19.6409 17.8124 20.0345 17.2077 20.285 16.54C20.5317 15.9025 20.7008 15.1767 20.75 14.1125C20.8 13.0458 20.81 12.7067 20.81 9.98999C20.81 7.27332 20.7975 6.93416 20.75 5.86749C20.7 4.80332 20.5317 4.07666 20.285 3.43999C20.0338 2.77267 19.6402 2.1681 19.1317 1.66832C18.6326 1.15886 18.0278 0.765148 17.36 0.51499C16.7225 0.26749 15.9967 0.0991569 14.9325 0.0499902C13.8658 -9.76771e-06 13.5267 -0.0100098 10.81 -0.0100098ZM10.81 1.78999C13.4792 1.78999 13.7975 1.80332 14.8517 1.84916C15.8267 1.89499 16.3558 2.05666 16.7075 2.19499C17.1758 2.37582 17.5075 2.59249 17.8592 2.94166C18.2083 3.29166 18.425 3.62416 18.6058 4.09249C18.7425 4.44416 18.9058 4.97332 18.95 5.94832C18.9975 7.00332 19.0083 7.31999 19.0083 9.98999C19.0083 12.66 18.9958 12.9775 18.9467 14.0317C18.8958 15.0067 18.7333 15.5358 18.5958 15.8875C18.4332 16.3215 18.1774 16.7145 17.8467 17.0392C17.5234 17.3702 17.1306 17.6253 16.6967 17.7858C16.3467 17.9225 15.8092 18.0858 14.8342 18.13C13.7725 18.1775 13.46 18.1883 10.785 18.1883C8.10916 18.1883 7.79666 18.1758 6.73583 18.1267C5.76 18.0758 5.2225 17.9133 4.8725 17.7758C4.43825 17.6152 4.04556 17.3591 3.72333 17.0267C3.38882 16.7056 3.13226 16.3122 2.97333 15.8767C2.83583 15.5267 2.67416 14.9892 2.62333 14.0142C2.58583 12.9642 2.5725 12.64 2.5725 9.97749C2.5725 7.31416 2.58583 6.98916 2.62333 5.92666C2.67416 4.95166 2.83583 4.41499 2.97333 4.06499C3.14833 3.58999 3.3725 3.26499 3.72333 2.91416C4.0725 2.56499 4.39833 2.33999 4.8725 2.16582C5.2225 2.02749 5.74833 1.86499 6.72333 1.81499C7.78583 1.77749 8.09833 1.76499 10.7725 1.76499L10.81 1.78999ZM10.81 4.85499C10.1357 4.85499 9.46793 4.98781 8.84492 5.24587C8.22191 5.50393 7.65583 5.88217 7.179 6.359C6.70218 6.83583 6.32393 7.4019 6.06588 8.02491C5.80782 8.64792 5.675 9.31565 5.675 9.98999C5.675 10.6643 5.80782 11.3321 6.06588 11.9551C6.32393 12.5781 6.70218 13.1442 7.179 13.621C7.65583 14.0978 8.22191 14.4761 8.84492 14.7341C9.46793 14.9922 10.1357 15.125 10.81 15.125C12.1719 15.125 13.478 14.584 14.441 13.621C15.404 12.658 15.945 11.3519 15.945 9.98999C15.945 8.6281 15.404 7.322 14.441 6.359C13.478 5.396 12.1719 4.85499 10.81 4.85499ZM10.81 13.3233C8.96833 13.3233 7.47666 11.8317 7.47666 9.98999C7.47666 8.14832 8.96833 6.65666 10.81 6.65666C12.6517 6.65666 14.1433 8.14832 14.1433 9.98999C14.1433 11.8317 12.6517 13.3233 10.81 13.3233ZM17.3483 4.65249C17.3368 4.96301 17.2053 5.25696 16.9815 5.47255C16.7577 5.68814 16.4591 5.80859 16.1483 5.80859C15.8376 5.80859 15.539 5.68814 15.3152 5.47255C15.0914 5.25696 14.9599 4.96301 14.9483 4.65249C14.9483 4.33423 15.0748 4.02901 15.2998 3.80396C15.5248 3.57892 15.8301 3.45249 16.1483 3.45249C16.4666 3.45249 16.7718 3.57892 16.9969 3.80396C17.2219 4.02901 17.3483 4.33423 17.3483 4.65249Z" fill="white"/>
</svg>
