<svg width="21" height="20" viewBox="0 0 21 20" fill="none" xmlns="http://www.w3.org/2000/svg">
<path d="M0.809998 2.6541C0.809998 2.01058 1.03523 1.4797 1.48567 1.06143C1.93612 0.643152 2.52172 0.434021 3.24243 0.434021C3.95029 0.434021 4.52299 0.639928 4.96058 1.05178C5.41102 1.47649 5.63625 2.02989 5.63625 2.71201C5.63625 3.32977 5.41747 3.84456 4.97988 4.25641C4.52944 4.68113 3.93741 4.89348 3.20382 4.89348H3.18451C2.47666 4.89348 1.90396 4.68113 1.46637 4.25641C1.02878 3.8317 0.809998 3.29759 0.809998 2.6541ZM1.06096 19.546V6.65024H5.34668V19.546H1.06096ZM7.72119 19.546H12.0069V12.3452C12.0069 11.8948 12.0584 11.5473 12.1613 11.3027C12.3415 10.8652 12.615 10.4951 12.9818 10.1927C13.3486 9.89026 13.8087 9.73904 14.3621 9.73904C15.8036 9.73904 16.5243 10.7107 16.5243 12.6541V19.546H20.81V12.1522C20.81 10.2474 20.3596 8.80275 19.4586 7.81819C18.5577 6.83363 17.3673 6.34136 15.8872 6.34136C14.227 6.34136 12.9335 7.05564 12.0069 8.48421V8.52282H11.9876L12.0069 8.48421V6.65024H7.72119C7.74693 7.06207 7.7598 8.34263 7.7598 10.4919C7.7598 12.6412 7.74693 15.6592 7.72119 19.546Z" fill="white"/>
</svg>
