<svg width="256" height="55" viewBox="0 0 256 55" fill="none" xmlns="http://www.w3.org/2000/svg">
<g clip-path="url(#clip0_35_12)">
<path d="M102 28.32C102 35.65 96.73 40.24 89.79 40.24C82.85 40.24 77.57 35.65 77.57 28.32V9.12H82.97V28.15C82.97 31.15 84.6 35.09 89.79 35.09C94.98 35.09 96.6 31.15 96.6 28.15V9.12H102V28.32Z" fill="white"/>
<path d="M116.16 15.04H107.5V9.12H131.5V15.04H122.84V39.47H116.16V15.04Z" fill="white"/>
<path d="M144.83 17.95L141.14 27.38H148.55L144.82 17.95H144.83ZM142.26 9.12H147.79L160.99 39.46H153.45L150.83 33.03H139.04L136.51 39.46H129.14L142.25 9.12H142.26Z" fill="white"/>
<path d="M171.13 33.29H174.6C180.81 33.29 185.49 30.94 185.49 24.04C185.49 18.08 180.73 15.29 175.07 15.29H171.13V33.29ZM164.44 9.12H174.47C184.24 9.12 192.43 13.28 192.43 24.38C192.43 34.19 184.42 39.46 175.37 39.46H164.44V9.12Z" fill="white"/>
<path d="M197.64 9.12H218.26V15.29H204.33V20.95H217.49V27.13H204.33V33.29H219.03V39.47H197.64V9.12Z" fill="white"/>
<path d="M238.72 34.07C244.42 34.07 248.15 29.96 248.15 24.3C248.15 18.64 244.42 14.53 238.72 14.53C233.02 14.53 229.29 18.64 229.29 24.3C229.29 29.96 233.02 34.07 238.72 34.07ZM238.72 8.35999C248.19 8.35999 255.09 14.57 255.09 24.3C255.09 34.03 248.19 40.25 238.72 40.25C229.25 40.25 222.35 34.03 222.35 24.3C222.35 14.57 229.25 8.35999 238.72 8.35999Z" fill="white"/>
<path d="M81.37 51.9C80.99 52.16 80.54 52.29 79.88 52.29C79.22 52.29 78.78 52.18 78.38 51.9C77.84 51.52 77.66 51.08 77.66 50.11V46.89H78.66V50.16C78.66 50.95 79.07 51.34 79.91 51.34C80.68 51.34 81.09 50.92 81.09 50.16V46.89H82.1V50.11C82.1 51.08 81.92 51.51 81.37 51.9Z" fill="white"/>
<path d="M86.8 52.23L84.53 48.81C84.53 48.81 84.48 48.72 84.42 48.6C84.39 48.54 84.36 48.49 84.36 48.49C84.33 48.43 84.31 48.39 84.29 48.3V52.18H83.33V46.89H84.49L86.71 50.37C86.71 50.37 86.74 50.43 86.77 50.49C86.79 50.54 86.81 50.58 86.82 50.59L86.87 50.73L86.92 50.82V46.9H87.87V52.24H86.81L86.8 52.23Z" fill="white"/>
<path d="M90.15 46.9H89.14V52.19H90.15V46.9Z" fill="white"/>
<path d="M93.4 52.34H92.7L90.73 46.9H91.84L93.05 50.47L93.07 50.54L93.09 50.63L93.11 50.73V50.67C93.11 50.6 93.11 50.58 93.13 50.54L93.16 50.48L94.31 46.91H95.37L93.41 52.35L93.4 52.34Z" fill="white"/>
<path d="M95.98 52.19V46.9H99.2V47.75H96.99V49.06H98.8V49.92H96.99V51.33H99.3V52.19H95.98Z" fill="white"/>
<path d="M101.88 47.75H101.22V49.21H101.88C102.52 49.21 102.8 48.98 102.8 48.46C102.8 47.94 102.54 47.76 101.88 47.76M102.94 52.19L101.73 50.07H101.22V52.19H100.21V46.9H101.97C102.74 46.9 103.09 46.99 103.4 47.29C103.69 47.55 103.83 47.94 103.83 48.44C103.83 48.85 103.73 49.18 103.54 49.43C103.34 49.69 103.16 49.8 102.71 49.92L104.03 52.19H102.92H102.94Z" fill="white"/>
<path d="M107.81 48.16C107.25 47.91 106.79 47.78 106.44 47.78C105.97 47.78 105.66 47.97 105.66 48.27C105.66 48.49 105.79 48.63 106.16 48.83C106.97 49.26 107.5 49.6 107.75 49.85C107.97 50.07 108.11 50.43 108.11 50.79C108.11 51.73 107.42 52.29 106.25 52.29C106.09 52.29 105.93 52.29 105.77 52.26C105.39 52.21 105.22 52.15 104.66 51.89C104.59 51.86 104.47 51.8 104.31 51.73L104.74 50.8C105.12 51.01 105.29 51.09 105.49 51.17C105.75 51.26 106.04 51.32 106.25 51.32C106.71 51.32 107.02 51.11 107.02 50.79C107.02 50.57 106.9 50.41 106.56 50.22L105.74 49.76C104.8 49.22 104.51 48.87 104.51 48.29C104.51 48.02 104.59 47.75 104.72 47.55C104.81 47.42 104.94 47.28 105.11 47.16C105.49 46.9 105.82 46.81 106.44 46.81C106.79 46.81 107.11 46.85 107.44 46.95C107.7 47.03 107.84 47.09 108.19 47.26L107.79 48.17L107.81 48.16Z" fill="white"/>
<path d="M110.07 46.9H109.06V52.19H110.07V46.9Z" fill="white"/>
<path d="M114.42 48.1C114.14 47.89 113.73 47.79 113.15 47.79H112.35V51.3H113.15C114.35 51.3 115.03 50.67 115.03 49.54C115.03 48.94 114.8 48.38 114.42 48.1ZM115.39 51.41C114.9 51.93 114.2 52.19 113.25 52.19H111.29V46.9H113.25C114.25 46.9 114.88 47.12 115.4 47.68C115.86 48.17 116.11 48.84 116.11 49.53C116.11 50.22 115.84 50.92 115.38 51.41" fill="white"/>
<path d="M118.51 48.11L117.9 50.03H119.13L118.51 48.11ZM119.82 52.19L119.4 50.88H117.63L117.2 52.19H116.14L118.06 46.9H118.96L120.88 52.19H119.82Z" fill="white"/>
<path d="M124.58 48.1C124.3 47.89 123.89 47.79 123.31 47.79H122.51V51.3H123.31C124.51 51.3 125.19 50.67 125.19 49.54C125.19 48.94 124.96 48.38 124.58 48.1ZM125.55 51.41C125.06 51.93 124.36 52.19 123.41 52.19H121.45V46.9H123.41C124.41 46.9 125.04 47.12 125.56 47.68C126.02 48.17 126.27 48.84 126.27 49.53C126.27 50.22 126.01 50.92 125.54 51.41" fill="white"/>
<path d="M131.95 48.14C131.67 47.93 131.26 47.83 130.68 47.83H129.88V51.34H130.68C131.88 51.34 132.56 50.71 132.56 49.58C132.56 48.98 132.33 48.43 131.95 48.15M132.92 51.46C132.43 51.98 131.73 52.24 130.78 52.24H128.83V46.95H130.79C131.79 46.95 132.42 47.17 132.94 47.73C133.4 48.22 133.65 48.89 133.65 49.58C133.65 50.27 133.39 50.97 132.92 51.46Z" fill="white"/>
<path d="M134.5 52.23V46.94H137.73V47.8H135.52V49.11H137.32V49.96H135.52V51.37H137.83V52.23H134.5Z" fill="white"/>
<path d="M142.49 49.96H141.83V51.42H142.49C142.8 51.42 142.95 51.39 143.1 51.32C143.32 51.21 143.46 50.97 143.46 50.7C143.46 50.22 143.12 49.95 142.49 49.95M142.49 47.73H141.83V49.09H142.43C143 49.09 143.31 48.85 143.31 48.4C143.31 47.98 143 47.73 142.49 47.73ZM142.93 52.22H140.77V46.93H142.69C143.38 46.93 143.72 47.02 144.01 47.28C144.27 47.5 144.43 47.88 144.43 48.23C144.43 48.53 144.32 48.84 144.13 49.06C143.9 49.33 143.68 49.42 143.26 49.45C144.06 49.47 144.57 49.99 144.57 50.81C144.57 51.72 143.99 52.22 142.94 52.22" fill="white"/>
<path d="M147.88 47.72C146.88 47.72 146.14 48.52 146.14 49.59C146.14 50.66 146.88 51.46 147.88 51.46C148.88 51.46 149.61 50.67 149.61 49.59C149.61 48.51 148.87 47.72 147.88 47.72ZM147.88 52.34C146.23 52.34 145.07 51.2 145.07 49.59C145.06 47.95 146.21 46.85 147.88 46.85C149.55 46.85 150.68 47.96 150.68 49.59C150.68 51.22 149.52 52.34 147.88 52.34Z" fill="white"/>
<path d="M155.47 52.16C154.91 52.29 154.58 52.34 154.14 52.34C152.39 52.34 151.17 51.22 151.17 49.58C151.17 48.78 151.47 48.08 152.04 47.56C152.59 47.06 153.19 46.85 154.11 46.85C154.5 46.85 154.88 46.89 155.22 46.97C155.48 47.03 155.64 47.09 156.01 47.25L155.77 48.09C155.58 48.02 155.43 47.97 155.33 47.94C154.95 47.81 154.58 47.75 154.24 47.75C153.06 47.75 152.23 48.48 152.23 49.53C152.23 50.58 153.14 51.44 154.31 51.44C154.55 51.44 154.69 51.41 155 51.33V49.87H156.01V52.03C155.77 52.09 155.59 52.13 155.47 52.16Z" fill="white"/>
<path d="M159.52 47.72C158.52 47.72 157.78 48.52 157.78 49.59C157.78 50.66 158.52 51.46 159.52 51.46C160.52 51.46 161.25 50.67 161.25 49.59C161.25 48.51 160.51 47.72 159.52 47.72ZM159.52 52.34C157.87 52.34 156.71 51.2 156.71 49.59C156.71 47.95 157.85 46.85 159.52 46.85C161.19 46.85 162.33 47.96 162.33 49.59C162.33 51.22 161.17 52.34 159.52 52.34Z" fill="white"/>
<path d="M165.07 47.8V52.23H164.06V47.8H162.47V46.94H166.66V47.8H165.07Z" fill="white"/>
<path d="M168.78 46.71H168.04L168.79 45.76H169.69L168.78 46.71ZM168.53 48.16L167.92 50.08H169.15L168.54 48.16H168.53ZM169.83 52.24L169.41 50.93H167.64L167.21 52.24H166.15L168.07 46.95H168.98L170.89 52.24H169.83Z" fill="white"/>
<path d="M174.1 53.47C173.94 53.73 173.84 53.87 173.58 54.2L172.83 53.69C173.1 53.26 173.16 53.15 173.28 52.91C173.47 52.53 173.54 52.14 173.54 51.57V47.04H174.54V52.48C174.4 52.95 174.33 53.11 174.11 53.47" fill="white"/>
<path d="M178.2 47.82C177.2 47.82 176.46 48.62 176.46 49.69C176.46 50.76 177.2 51.56 178.2 51.56C179.2 51.56 179.93 50.77 179.93 49.69C179.93 48.61 179.19 47.82 178.2 47.82ZM178.2 52.44C176.55 52.44 175.39 51.3 175.39 49.69C175.39 48.05 176.53 46.95 178.2 46.95C179.87 46.95 181 48.06 181 49.69C181 51.32 179.84 52.44 178.2 52.44Z" fill="white"/>
<path d="M183.55 47.9H182.89V49.36H183.55C184.19 49.36 184.47 49.13 184.47 48.6C184.47 48.1 184.2 47.89 183.55 47.89M184.61 52.32L183.4 50.2H182.9V52.32H181.89V47.03H183.65C184.42 47.03 184.77 47.12 185.08 47.42C185.37 47.68 185.51 48.07 185.51 48.56C185.51 48.97 185.41 49.3 185.22 49.56C185.02 49.82 184.84 49.93 184.39 50.05L185.71 52.32H184.6H184.61Z" fill="white"/>
<path d="M190.32 52.26C189.76 52.39 189.43 52.44 188.99 52.44C187.24 52.44 186.02 51.32 186.02 49.68C186.02 48.88 186.32 48.18 186.89 47.66C187.44 47.16 188.05 46.95 188.96 46.95C189.34 46.95 189.73 46.99 190.06 47.07C190.32 47.13 190.48 47.19 190.85 47.35L190.61 48.19C190.42 48.12 190.28 48.07 190.18 48.04C189.8 47.91 189.43 47.84 189.09 47.84C187.9 47.84 187.08 48.57 187.08 49.62C187.08 50.67 187.98 51.53 189.16 51.53C189.4 51.53 189.54 51.51 189.85 51.42V49.96H190.86V52.12C190.62 52.18 190.44 52.21 190.32 52.25" fill="white"/>
<path d="M192.01 52.33V47.04H195.23V47.9H193.02V49.2H194.83V50.06H193.02V51.47H195.33V52.33H192.01Z" fill="white"/>
<path d="M200.27 47.9V52.33H199.26V47.9H197.67V47.04H201.85V47.9H200.27Z" fill="white"/>
<path d="M203.73 48.25L203.12 50.16H204.35L203.73 48.25ZM205.04 52.33L204.62 51.02H202.85L202.42 52.33H201.36L203.28 47.04H204.18L206.1 52.33H205.04Z" fill="white"/>
<path d="M209.8 48.24C209.52 48.03 209.11 47.93 208.53 47.93H207.73V51.44H208.53C209.73 51.44 210.4 50.81 210.4 49.68C210.4 49.08 210.17 48.53 209.79 48.25M210.76 51.56C210.27 52.08 209.57 52.34 208.62 52.34H206.66V47.05H208.62C209.62 47.05 210.25 47.27 210.77 47.83C211.23 48.32 211.48 48.99 211.48 49.68C211.48 50.37 211.22 51.07 210.75 51.56" fill="white"/>
<path d="M212.35 52.33V47.04H215.57V47.9H213.36V49.2H215.17V50.06H213.36V51.47H215.68V52.33H212.35Z" fill="white"/>
<path d="M218.91 47.82C217.91 47.82 217.17 48.62 217.17 49.69C217.17 50.76 217.91 51.56 218.91 51.56C219.91 51.56 220.64 50.77 220.64 49.69C220.64 48.61 219.9 47.82 218.91 47.82ZM218.91 52.44C217.26 52.44 216.1 51.3 216.1 49.69C216.09 48.05 217.24 46.95 218.91 46.95C220.58 46.95 221.72 48.06 221.72 49.69C221.72 51.32 220.56 52.44 218.91 52.44Z" fill="white"/>
<path d="M224.69 52.33V47.04H225.7V51.47H227.86V52.33H224.69Z" fill="white"/>
<path d="M230.8 47.82C229.8 47.82 229.06 48.62 229.06 49.69C229.06 50.76 229.8 51.56 230.8 51.56C231.8 51.56 232.53 50.77 232.53 49.69C232.53 48.61 231.79 47.82 230.8 47.82ZM230.8 52.44C229.15 52.44 227.99 51.3 227.99 49.69C227.99 48.05 229.13 46.95 230.8 46.95C232.47 46.95 233.61 48.06 233.61 49.69C233.61 51.32 232.45 52.44 230.8 52.44Z" fill="white"/>
<path d="M233.93 52.33V51.67L236.8 47.9H233.98V47.04H238.16V47.7L235.34 51.47H238.16V52.33H233.93Z" fill="white"/>
<path d="M240.9 48.25L240.29 50.16H241.52L240.9 48.25ZM242.21 52.33L241.79 51.02H240.02L239.59 52.33H238.53L240.45 47.04H241.36L243.28 52.33H242.22H242.21Z" fill="white"/>
<path d="M247.37 52.38L245.1 48.96C245.1 48.96 245.05 48.86 244.99 48.75C244.96 48.68 244.93 48.65 244.92 48.64C244.89 48.58 244.87 48.54 244.85 48.45V52.33H243.89V47.04H245.05L247.27 50.52C247.27 50.52 247.3 50.58 247.33 50.63C247.35 50.69 247.37 50.72 247.38 50.73L247.43 50.87L247.48 50.96V47.04H248.43V52.38H247.37Z" fill="white"/>
<path d="M252.15 47.82C251.15 47.82 250.41 48.62 250.41 49.69C250.41 50.76 251.15 51.56 252.15 51.56C253.15 51.56 253.88 50.77 253.88 49.69C253.88 48.61 253.15 47.82 252.15 47.82ZM252.15 52.44C250.5 52.44 249.34 51.3 249.34 49.69C249.34 48.05 250.48 46.95 252.15 46.95C253.82 46.95 254.96 48.06 254.96 49.69C254.96 51.32 253.8 52.44 252.15 52.44Z" fill="white"/>
<path d="M7.29001 52.28V16.33L54.85 6.84998V10.54L11.66 18.43V51.27L7.29001 52.28Z" fill="white"/>
<path d="M14.3 51.41V21.18L53.75 15.26V18.63L18.65 23.02V50.44L14.3 51.41Z" fill="white"/>
<path d="M21.5 50.46V26.34L52.59 22.82V25.1L25.42 27.67V49.62L21.5 50.46Z" fill="white"/>
<path d="M67.34 52.28V17.28L66.14 16.91V9.84L64.61 9.32V1.34L60.48 0V53.56L67.34 52.28Z" fill="white"/>
<path d="M4.22 41.24V12.8L60.48 0L0 8.28L4.22 41.24Z" fill="white"/>
</g>
<defs>
<clipPath id="clip0_35_12">
<rect width="255.09" height="54.2" fill="white"/>
</clipPath>
</defs>
</svg>
