<svg width="18" height="20" viewBox="0 0 18 20" fill="none" xmlns="http://www.w3.org/2000/svg">
<path d="M14.041 9.25923C13.9561 9.21804 13.8689 9.17803 13.7818 9.14038C13.6295 6.29618 12.0937 4.66756 9.51519 4.65109C9.50356 4.65109 9.49194 4.65109 9.48031 4.65109C7.9376 4.65109 6.65531 5.31713 5.86594 6.53035L7.28425 7.51529C7.87366 6.60919 8.79906 6.41621 9.48147 6.41621C9.48961 6.41621 9.49775 6.41621 9.50473 6.41621C10.3534 6.42209 10.994 6.67156 11.409 7.15874C11.7112 7.51294 11.9124 8.00364 12.0124 8.62261C11.2602 8.49317 10.4452 8.45316 9.57564 8.50376C7.12382 8.64614 5.54856 10.0935 5.65435 12.1046C5.70783 13.1248 6.21005 14.0027 7.06802 14.5758C7.79345 15.0606 8.72698 15.2971 9.69771 15.2442C10.98 15.1736 11.9856 14.6782 12.6866 13.7721C13.2191 13.0848 13.5562 12.194 13.705 11.0714C14.3165 11.4444 14.7688 11.9363 15.0187 12.5259C15.4442 13.5296 15.4686 15.1783 14.1387 16.5233C12.9738 17.7012 11.5741 18.2107 9.45706 18.226C7.10987 18.2084 5.33465 17.447 4.18024 15.9608C3.09906 14.5699 2.54104 12.5612 2.52011 9.98999C2.54104 7.4188 3.09906 5.41009 4.18024 4.01917C5.33465 2.53412 7.10987 1.77159 9.45706 1.75393C11.8217 1.77159 13.6271 2.53765 14.8257 4.02976C15.4128 4.7617 15.8569 5.68192 16.1487 6.75511L17.81 6.30677C17.4554 4.98646 16.8986 3.84737 16.1406 2.90362C14.6037 0.990226 12.3576 0.00999494 9.46171 -0.0100098H9.45009C6.56114 0.00999494 4.33951 0.994932 2.84679 2.91538C1.51915 4.62402 0.833249 7.00223 0.809998 9.98293V9.98999V9.99705C0.833249 12.9778 1.51799 15.356 2.84679 17.0646C4.33951 18.985 6.56114 19.9688 9.45009 19.99H9.46171C12.031 19.9723 13.841 19.291 15.3326 17.7824C17.2845 15.809 17.2252 13.3355 16.5823 11.8163C16.1243 10.7278 15.2442 9.84407 14.041 9.25923ZM9.60587 13.4802C8.53167 13.5414 7.41562 13.0531 7.35982 12.0081C7.31913 11.2326 7.90505 10.3677 9.67097 10.2653C9.87325 10.2536 10.0721 10.2477 10.2674 10.2477C10.9091 10.2477 11.509 10.3112 12.0554 10.4313C11.8519 13.0036 10.658 13.4214 9.60587 13.4802Z" fill="white"/>
</svg>
