<svg width="19" height="20" viewBox="0 0 19 20" fill="none" xmlns="http://www.w3.org/2000/svg">
<path d="M10.2636 0.00665669C11.3945 -0.0100098 12.5167 -0.00167654 13.639 -0.0100098C13.7081 1.26497 14.1829 2.56496 15.1497 3.46495C16.1166 4.38994 17.4806 4.81493 18.81 4.95659V8.31489C17.5669 8.27322 16.3151 8.02322 15.1843 7.50656C14.6922 7.2899 14.2347 7.0149 13.7858 6.73157C13.7771 9.16488 13.7944 11.5982 13.7685 14.0231C13.6994 15.1898 13.3023 16.3481 12.6031 17.3064C11.4722 18.9064 9.51256 19.9481 7.50113 19.9814C6.26665 20.0481 5.03218 19.7231 3.97898 19.1231C2.23517 18.1314 1.00933 16.3148 0.828041 14.3648C0.810776 13.9481 0.802143 13.5315 0.819409 13.1232C0.974798 11.5398 1.78627 10.0232 3.04665 8.98988C4.47968 7.78989 6.48247 7.2149 8.35577 7.55656C8.37304 8.78988 8.32124 10.0232 8.32124 11.2565C7.4666 10.9899 6.46521 11.0649 5.71416 11.5648C5.1703 11.9065 4.75593 12.4315 4.54011 13.0232C4.35882 13.4482 4.41062 13.9148 4.41925 14.3648C4.62644 15.7315 5.99041 16.8814 7.44071 16.7564C8.40757 16.7481 9.33127 16.2065 9.83197 15.4148C9.99599 15.1398 10.1773 14.8565 10.1859 14.5315C10.2722 13.0398 10.2377 11.5565 10.2463 10.0649C10.255 6.70657 10.2377 3.35661 10.2636 0.00665669Z" fill="white"/>
</svg>
