<?xml version="1.0" encoding="UTF-8"?>
<svg id="Capa_2" data-name="Capa 2" xmlns="http://www.w3.org/2000/svg" viewBox="0 0 67.34 53.56">
  <defs>
    <style>
      .cls-1 {
        fill: #fff;
        stroke-width: 0px;
      }
    </style>
  </defs>
  <g id="Capa_2-2" data-name="Capa 2">
    <g>
      <polygon class="cls-1" points="7.29 52.28 7.29 16.33 54.85 6.85 54.85 10.54 11.66 18.43 11.66 51.27 7.29 52.28"/>
      <polygon class="cls-1" points="14.3 51.41 14.3 21.18 53.75 15.26 53.75 18.63 18.65 23.02 18.65 50.44 14.3 51.41"/>
      <polygon class="cls-1" points="21.5 50.46 21.5 26.34 52.59 22.82 52.59 25.1 25.42 27.67 25.42 49.62 21.5 50.46"/>
      <polygon class="cls-1" points="67.34 52.28 67.34 17.28 66.14 16.91 66.14 9.84 64.61 9.32 64.61 1.34 60.48 0 60.48 53.56 67.34 52.28"/>
      <polygon class="cls-1" points="4.22 41.24 4.22 12.8 60.48 0 0 8.28 4.22 41.24"/>
    </g>
  </g>
</svg>