<svg width="21" height="14" viewBox="0 0 21 14" fill="none" xmlns="http://www.w3.org/2000/svg">
<path d="M20.3925 2.22332C20.2765 1.81345 20.0554 1.44002 19.7505 1.13913C19.4456 0.83823 19.0672 0.620045 18.6518 0.505657C17.0929 0.0935177 10.8189 0.0935175 10.8189 0.0935175C10.8189 0.0935175 4.56074 0.0852914 2.98599 0.505657C2.57063 0.620045 2.19221 0.83823 1.88729 1.13913C1.58236 1.44002 1.36126 1.81345 1.24534 2.22332C0.94983 3.79825 0.804143 5.397 0.810178 6.9987C0.805283 8.59435 0.950966 10.187 1.24534 11.756C1.36126 12.1659 1.58236 12.5393 1.88729 12.8402C2.19221 13.1411 2.57063 13.3593 2.98599 13.4736C4.54323 13.8866 10.8189 13.8866 10.8189 13.8866C10.8189 13.8866 17.0762 13.8866 18.6518 13.4736C19.0672 13.3593 19.4456 13.1411 19.7505 12.8402C20.0554 12.5393 20.2765 12.1659 20.3925 11.756C20.6807 10.1864 20.8202 8.59379 20.8093 6.9987C20.8214 5.39757 20.6818 3.79883 20.3925 2.22332ZM8.81649 9.95278V4.03558L14.0384 6.9987L8.81649 9.95278Z" fill="white"/>
</svg>
